<svg width="1440" height="900" viewBox="0 0 1440 900" fill="none" xmlns="http://www.w3.org/2000/svg">
<g opacity="0.2">
<mask id="mask0_11628_12457" style="mask-type:luminance" maskUnits="userSpaceOnUse" x="240" y="0" width="1200" height="900">
<path d="M240 900H1440V6.10352e-05H240V900Z" fill="white"/>
</mask>
<g mask="url(#mask0_11628_12457)">
<g opacity="0.15">
<path d="M1824.79 229.7L1589.68 403.262L1361.54 291.375L1361.25 291.989L1589.75 404.055L1823.45 231.537L1687.06 630.623L1890.45 443.371L1889.99 442.867L1688.56 628.315L1824.79 229.7Z" fill="#01579B" fill-opacity="0.3"/>
<path d="M1602.67 260.185L1590.05 403.688L1589.37 403.627L1601.98 260.277L1361.44 292.021L1361.35 291.344L1602.04 259.58L1623.3 17.8812L1824.36 230.382L1824.82 230.87L1602.67 260.185ZM1602.73 259.49L1823.41 230.367L1623.84 19.4403L1602.73 259.49Z" fill="#01579B" fill-opacity="0.3"/>
<path d="M1361.63 291.912L1360.93 292.65L1389.49 69.8879L1389.52 69.6484L1623.5 18.3201L1624.59 18.0806L1361.63 291.912ZM1361.86 290.699L1622.55 19.2256L1390.13 70.2119L1361.86 290.699Z" fill="#01579B" fill-opacity="0.3"/>
<path d="M1623.64 18.32L1196.54 -72.3877L1388.83 69.6231L1060.85 81.1184L1060.87 81.8008L1390.81 70.237L1199.47 -71.0662L1623.5 18.9861L1623.64 18.32Z" fill="#01579B" fill-opacity="0.3"/>
<path d="M1611.83 152.267L1460.62 187.769L1061.48 81.2719L1198.25 -71.4997L1331.72 -200.901L1389.49 70.0016L1390.15 69.8576L1332.13 -202.24L1331.69 -201.817L1197.77 -71.975L1060.24 81.6446L1060.77 81.7886L1460.61 188.473L1611.98 152.932L1611.83 152.267Z" fill="#01579B" fill-opacity="0.3"/>
<path d="M1603.48 260.16L1461.2 188.335L1461.51 187.724L1603.3 259.305L1796.36 18.3282L1623.57 18.989H1623.46L1331.85 -201.206L1119.43 -151.691L1199.04 -71.1624L974.232 -118.546L1118.09 -152.078L1013.25 -258.112L1013.73 -258.595L1118.86 -152.26L1331.85 -201.907L1332.01 -201.943L1623.68 18.3048L1797.07 17.6423L1797.78 17.6387L1603.48 260.16ZM977.379 -118.584L1196.97 -72.3002L1118.65 -151.513L977.379 -118.584Z" fill="#01579B" fill-opacity="0.3"/>
<path d="M1332.26 -201.557L1332.25 -201.163L1013.73 -257.959L976.161 -118.584L1061.17 81.3266L1060.55 81.5967L975.495 -118.424L854.067 -403.317L1013.59 -258.72L1335.88 -329.739L1336.31 -329.833L1332.26 -201.557ZM1331.6 -201.973L1335.6 -328.978L1015.23 -258.384L1331.6 -201.973ZM975.732 -119.59L1013.11 -258.234L855.901 -400.735L975.732 -119.59Z" fill="#01579B" fill-opacity="0.3"/>
<path d="M965.97 222.479L969.589 92.5156L837.356 108.026L976.177 -119.818L970.286 91.7469L1061.56 81.0401L965.97 222.479ZM966.711 220.172L1060.17 81.8917L970.268 92.4364L966.711 220.172ZM969.609 91.8261L975.432 -117.292L838.664 107.185L969.609 91.8261Z" fill="#01579B" fill-opacity="0.3"/>
<path d="M1733.66 492.834L1814.3 401.804L1589.71 403.997L1589.52 403.999L1389.04 69.2807L1824.19 230.278L1957.82 240.816L1815.82 401.106L2033.69 398.979L1733.66 492.834ZM1735.79 491.453L2029.08 399.707L1815.21 401.795L1735.79 491.453ZM1589.9 403.311L1814.91 401.115L1956.41 241.388L1824.09 230.955L1824.05 230.951L1390.61 70.5896L1589.9 403.311Z" fill="#01579B" fill-opacity="0.3"/>
<path d="M838.244 107.929L1198.2 -71.4297L1197.9 -72.0416L837.945 107.317L838.244 107.929Z" fill="#01579B" fill-opacity="0.3"/>
<path d="M1217.19 -468.266L1012.41 -255.991L1012.9 -255.514L1216.44 -466.504L1209.02 -301.528L1209.1 -301.524C1208.97 -300.831 1208.86 -298.645 1208.5 -291.654C1208.18 -285.371 1207.74 -276.393 1207.2 -265.623C1206.13 -244.08 1204.71 -215.357 1203.3 -186.634C1200.48 -129.19 1197.67 -71.7456 1197.67 -71.7456L1197.66 -71.6213L1197.74 -71.5223L1375.92 164.403L975.874 -118.929L975.726 -118.893L872.101 -93.7046L969.641 92.2837L970.238 91.9632L873.106 -93.2473L975.737 -118.195L1379.11 167.49L1198.35 -71.8356C1198.66 -78.1332 1209.14 -292.261 1209.68 -301.187H1209.69L1209.7 -301.497L1217.19 -468.266Z" fill="#01579B" fill-opacity="0.3"/>
<path d="M2015.47 -23.2778L1797.77 17.5149L1936.83 -203.818L1936.16 -203.77L1655.36 -183.584L1655.28 -183.393L1525.96 119.441L1333.69 -330.38L1333.07 -330.108L1525.96 121.164L1526.27 120.438L1655.82 -182.932L1935.54 -203.041L1796.37 18.4709L1797.13 18.3286L2013.87 -22.2839L1823.74 230.547L1823.79 230.716L1945.83 623.044L1946.18 622.137L2031.86 399.025L2031.23 398.778L1945.9 620.983L1824.49 230.68L2015.47 -23.2778Z" fill="#01579B" fill-opacity="0.3"/>
<path d="M1248.58 75.0001L1249.22 74.7725L1198.68 -71.958L1198.05 -71.7304L1248.58 75.0001Z" fill="#01579B" fill-opacity="0.3"/>
<path d="M1060.57 81.4706L1061.24 81.374L1014.21 -258.503L1013.54 -258.406L1060.57 81.4706Z" fill="#01579B" fill-opacity="0.3"/>
<path d="M1307.45 72.8543L1332.25 -201.551L1331.58 -201.613L1306.78 72.7921L1307.45 72.8543Z" fill="#01579B" fill-opacity="0.3"/>
<path d="M1364.06 295.2C1367.69 291.909 1364.89 286.379 1360.13 287.423C1359.61 287.536 1359.12 287.788 1358.73 288.145C1355.1 291.436 1357.89 296.965 1362.66 295.921C1363.18 295.809 1363.67 295.557 1364.06 295.2Z" fill="#01579B" fill-opacity="0.3"/>
<path d="M1392.41 73.7191C1396.04 70.4281 1393.24 64.8974 1388.47 65.9434C1387.96 66.0568 1387.47 66.3088 1387.08 66.6653C1383.45 69.9564 1386.24 75.4853 1391.01 74.4411C1391.53 74.3277 1392.02 74.0738 1392.41 73.7191Z" fill="#01579B" fill-opacity="0.3"/>
<path d="M1380.18 169.468C1383.81 166.177 1381.01 160.646 1376.24 161.692C1375.73 161.806 1375.24 162.058 1374.85 162.414C1371.22 165.705 1374.01 171.234 1378.78 170.19C1379.29 170.077 1379.78 169.825 1380.18 169.468Z" fill="#01579B" fill-opacity="0.3"/>
<path d="M1309.85 76.3438C1313.48 73.0527 1310.68 67.522 1305.91 68.568C1305.4 68.6815 1304.91 68.9335 1304.52 69.2899C1300.88 72.581 1303.68 78.1117 1308.45 77.0657C1308.96 76.9523 1309.45 76.6985 1309.85 76.3438Z" fill="#01579B" fill-opacity="0.3"/>
<path d="M1251.58 78.3909C1255.21 75.0998 1252.42 69.5691 1247.65 70.6133C1247.13 70.7267 1246.64 70.9788 1246.25 71.3352C1242.62 74.6263 1245.41 80.1552 1250.18 79.111C1250.7 78.9976 1251.19 78.7455 1251.58 78.3909Z" fill="#01579B" fill-opacity="0.3"/>
<path d="M1140.04 -0.688225C1143.68 -3.97929 1140.88 -9.51002 1136.11 -8.46581C1135.6 -8.35238 1135.11 -8.10033 1134.71 -7.74386C1131.08 -4.4528 1133.88 1.07612 1138.65 0.0319089C1139.16 -0.0797136 1139.65 -0.333554 1140.04 -0.688225Z" fill="#01579B" fill-opacity="0.3"/>
<path d="M1063.53 84.974C1067.16 81.683 1064.36 76.154 1059.6 77.1983C1059.08 77.3117 1058.59 77.5637 1058.2 77.9202C1054.57 81.2113 1057.37 86.7402 1062.13 85.696C1062.65 85.5825 1063.14 85.3305 1063.53 84.974Z" fill="#01579B" fill-opacity="0.3"/>
<path d="M969.272 223.141C972.904 219.85 970.106 214.319 965.339 215.365C964.824 215.478 964.334 215.73 963.942 216.087C960.311 219.378 963.108 224.909 967.875 223.863C968.39 223.749 968.88 223.495 969.272 223.141Z" fill="#01579B" fill-opacity="0.3"/>
<path d="M972.167 95.4984C975.798 92.2074 973.001 86.6785 968.234 87.7227C967.719 87.8361 967.229 88.0881 966.837 88.4446C963.205 91.7357 966.003 97.2646 970.77 96.2204C971.285 96.107 971.775 95.8531 972.167 95.4984Z" fill="#01579B" fill-opacity="0.3"/>
<path d="M840.676 111.111C844.308 107.82 841.51 102.291 836.744 103.335C836.229 103.448 835.739 103.7 835.345 104.057C831.715 107.348 834.511 112.877 839.278 111.833C839.793 111.719 840.283 111.467 840.676 111.111Z" fill="#01579B" fill-opacity="0.3"/>
</g>
</g>
<mask id="mask1_11628_12457" style="mask-type:luminance" maskUnits="userSpaceOnUse" x="0" y="0" width="1440" height="900">
<path d="M0 900H1440V6.10352e-05H0V900Z" fill="white"/>
</mask>
<g mask="url(#mask1_11628_12457)">
<path d="M260.137 645.98L260.595 646.955L358.336 855.632L358.212 855.818L242.911 1027.93L242.957 1026.9L260.137 645.98ZM357.67 855.562L260.58 648.275L243.546 1025.91L357.67 855.562Z" fill="#01579B" fill-opacity="0.3"/>
<path d="M260.516 646.86L547.301 902.877L358.722 856.134L531.261 1107.7L530.848 1108.15L357.282 855.081L544.922 901.591L260.2 647.416L260.516 646.86Z" fill="#01579B" fill-opacity="0.3"/>
<path d="M188.254 746.37L250.048 882.803L530.825 1107.34L545.841 902.206L548.928 715.353L358.142 855.904L357.865 855.315L549.493 714.145L549.483 714.755L546.386 902.243L531.287 1108.52L530.908 1108.22L249.641 883.287L187.78 746.706L188.254 746.37Z" fill="#01579B" fill-opacity="0.3"/>
<path d="M165.72 516.955L166.107 517.486L260.5 646.808L549.384 714.424L549.448 714.561L636.703 906.497L756.667 912.617L756.645 913.299L637.021 907.198L695.954 1036.83L545.211 901.831L636.06 906.465L549.035 715.036L260.219 647.436L260.158 647.351L166.091 518.476L130.011 825.197L249.588 882.101L249.394 882.738L129.407 825.64L165.72 516.955ZM636.378 907.165L547.014 902.607L694.252 1034.47L636.378 907.165Z" fill="#01579B" fill-opacity="0.3"/>
<path d="M622.196 624.614L622.373 624.992L756.821 912.649L929 933.278L695.193 1035.99L531.145 1108.25L530.964 1107.6L694.922 1035.38L756.293 913.056L548.794 714.777L549.019 714.501L622.196 624.614ZM755.722 911.652L622.079 625.716L549.626 714.714L755.722 911.652ZM926.48 933.661L756.798 913.333L695.749 1035.02L926.48 933.661Z" fill="#01579B" fill-opacity="0.3"/>
<path d="M-187.342 599.903L-69.4966 763.275L-52.92 549.164L26.3232 641.351L358.818 855.74L52.5126 933.438L52.4091 933.294L-69.0723 764.881L-78.4868 886.478L-187.342 599.903ZM-69.5686 764.197L-185.25 603.825L-78.8405 883.961L-69.5686 764.197ZM357.188 855.458L26.0067 641.915L25.9794 641.882L-52.4842 550.602L-69.0034 763.961L52.7082 932.691L357.188 855.458Z" fill="#01579B" fill-opacity="0.3"/>
<path d="M219.713 264.404L220.254 264.314L245.609 504.698L362.145 486.138L260.172 647.989L245.139 505.462L166.006 518.064L26.3218 641.926L26.0068 641.369L165.802 517.411L245.067 504.787L219.713 264.404ZM360.892 487.026L245.681 505.375L260.546 646.297L360.892 487.026Z" fill="#01579B" fill-opacity="0.3"/>
<path d="M768.663 619.375L755.855 915.361L755.31 915.325L768.04 621.131L675.137 738.385L675.091 738.327C674.759 738.898 673.535 740.463 669.62 745.46C666.101 749.954 661.072 756.367 655.033 764.06C642.958 779.448 626.851 799.954 610.744 820.458C578.528 861.467 546.305 902.465 546.305 902.465L546.235 902.553L546.136 902.566L310.079 929.922L695.279 1035.36L695.34 1035.49L737.184 1129.58L574.56 1183.05L574.422 1182.39L736.366 1129.14L694.924 1035.96L306.527 929.645L545.987 901.896C549.52 897.402 669.633 744.578 674.582 738.129L674.578 738.122L674.752 737.902L768.663 619.375Z" fill="#01579B" fill-opacity="0.3"/>
<path d="M70.7714 327.456L165.803 516.893L219.859 263.618L220.197 264.148L361.835 486.532L361.767 486.721L254.488 787.958L623.947 626.192L624.127 626.836L253.475 789.124L253.731 788.402L361.202 486.633L220.108 265.102L166.007 518.582L165.674 517.92L71.0606 329.315L26.4089 641.882L26.2809 641.956L-271 816.981L-270.657 816.108L-186.376 601.303L-185.887 601.604L-269.825 815.536L25.9213 641.414L70.7714 327.456Z" fill="#01579B" fill-opacity="0.3"/>
<path d="M401.711 919.203L549.402 714.923L548.998 714.465L401.307 918.745L401.711 919.203Z" fill="#01579B" fill-opacity="0.3"/>
<path d="M360.981 485.434L549.337 714.413L881.405 776.231L880.963 776.717L756.915 913.132L737.124 1128.56L927.568 933.195L927.913 933.723L736.427 1130.15L756.397 912.794L756.476 912.705L880.162 776.688L549.084 715.056L549.021 714.979L362.057 487.695L432.711 800.66L432.186 800.845L360.981 485.434Z" fill="#01579B" fill-opacity="0.3"/>
<path d="M354.365 856.277C354.314 851.347 359.096 849.68 361.086 853.934C361.3 854.394 361.42 854.928 361.425 855.459C361.476 860.389 356.697 862.054 354.705 857.802C354.491 857.343 354.371 856.808 354.365 856.277Z" fill="#01579B" fill-opacity="0.3"/>
<path d="M429.104 801.079C429.052 796.15 433.832 794.483 435.824 798.735C436.039 799.194 436.158 799.729 436.164 800.26C436.216 805.189 431.435 806.856 429.443 802.604C429.229 802.145 429.109 801.61 429.104 801.079Z" fill="#01579B" fill-opacity="0.3"/>
<path d="M545.679 715.173C545.626 710.242 550.408 708.575 552.399 712.829C552.614 713.288 552.733 713.823 552.739 714.354C552.791 719.283 548.012 720.95 546.018 716.698C545.804 716.239 545.685 715.704 545.679 715.173Z" fill="#01579B" fill-opacity="0.3"/>
</g>
<mask id="mask2_11628_12457" style="mask-type:luminance" maskUnits="userSpaceOnUse" x="0" y="0" width="1440" height="900">
<path d="M0 900H1440V6.10352e-05H0V900Z" fill="white"/>
</mask>
<g mask="url(#mask2_11628_12457)">
<g opacity="0.15">
<path d="M1032.93 983.872L700.839 763.781L927.766 748.044L927.858 748.249L1032.93 983.872ZM702.866 764.325L1031.44 982.084L927.386 748.755L702.866 764.325Z" fill="#01579B" fill-opacity="0.3"/>
<path d="M661.193 1055.1L701.516 764.211L512.685 611.652L513.059 611.103L702.191 763.907L662.111 1053.05L928.184 746.233L863.121 1015.04L862.516 1014.87L926.952 748.647L661.193 1055.1Z" fill="#01579B" fill-opacity="0.3"/>
<path d="M662.158 1054.59L661.564 1054.4L402.518 972.646L589.968 841.773L512.578 611.497L513.166 611.261L590.508 841.395L701.683 763.774L702.021 764.348L590.729 842.052L662.158 1054.59ZM404.02 972.411L661.144 1053.56L590.187 842.43L404.02 972.411Z" fill="#01579B" fill-opacity="0.3"/>
<path d="M403.242 973.704L402.968 972.613L344.369 739.297L344.55 739.158L513.467 610.504L513.171 611.48L403.242 973.704ZM345.09 739.583L403.3 971.344L512.281 612.242L345.09 739.583Z" fill="#01579B" fill-opacity="0.3"/>
<path d="M403.029 972.754L146.096 632.186L344.056 738.71L212.746 439.629L213.311 439.333L345.402 740.196L148.428 634.201L403.513 972.32L403.029 972.754Z" fill="#01579B" fill-opacity="0.3"/>
<path d="M506.899 900.186L470.925 748.329L213.144 440.115L147.553 633.302L99.5556 812.72L344.645 739.114L344.812 739.773L98.6407 813.703L98.7959 813.116L146.96 633.087L212.912 438.826L213.259 439.241L471.493 747.994L507.505 900.015L506.899 900.186Z" fill="#01579B" fill-opacity="0.3"/>
<path d="M477.16 1129.02L476.858 1128.39L403.039 972.783L98.8304 813.449L98.794 813.296L47.8286 599.559L-83.7386 554.596L-83.5521 553.945L47.642 598.781L13.2191 454.421L148.167 633.85L48.5322 599.8L99.3638 812.974L403.498 972.268L403.546 972.369L477.109 1127.43L590.29 843.011L471.269 749.138L471.635 748.586L591.065 842.781L477.16 1129.02ZM48.3473 599.022L146.354 632.516L14.5437 457.258L48.3473 599.022Z" fill="#01579B" fill-opacity="0.3"/>
<path d="M888.452 1163.88L796.75 967.762L727.288 1169.11L661.41 1054.3L343.86 739.046L702.051 763.734L702.132 763.907L796.664 966.074L836.112 851.725L888.452 1163.88ZM797.049 966.896L887.066 1159.41L835.901 854.271L797.049 966.896ZM345.599 739.849L661.896 1053.86L661.919 1053.9L727.149 1167.58L796.365 966.938L701.655 764.391L345.599 739.849Z" fill="#01579B" fill-opacity="0.3"/>
<path d="M-167 833.86L-82.1853 552.228L-81.5906 552.44L-165.892 832.368L-34.9012 749.393L-34.8633 749.463C-34.3595 749.02 -32.6287 747.909 -27.0941 744.357C-22.1195 741.165 -15.0126 736.608 -6.48206 731.146C10.5791 720.22 33.3317 705.66 56.0843 691.106C101.591 661.996 147.103 632.898 147.103 632.898L147.202 632.835L147.314 632.857L415.6 683.289L13.6132 456.081L13.5785 455.932L-10.3765 351.462L182.712 352.767L182.708 353.45L-9.57217 352.15L14.1532 455.615L419.475 684.707L147.321 633.55C142.331 636.74 -27.3188 745.203 -34.3447 749.819L-34.3414 749.828L-34.5858 749.985L-167 833.86Z" fill="#01579B" fill-opacity="0.3"/>
<path d="M537.232 1342.94L477.048 1129.09L356.682 1356.05L356.434 1355.43L252.429 1094.58L252.548 1094.42L443.373 838.476L-4.90552 874.402L-4.95007 873.722L444.775 837.678L444.318 838.292L253.154 1094.69L356.761 1354.53L477.224 1127.39L477.434 1128.14L537.356 1341.05L661.437 1053.78L661.595 1053.75L1033 981.518L1032.41 982.249L887.709 1162.23L887.239 1161.78L1031.35 982.532L661.866 1054.39L537.232 1342.94Z" fill="#01579B" fill-opacity="0.3"/>
<path d="M836 853.358L836.026 852.668L590.899 842.025L590.874 842.715L836 853.358Z" fill="#01579B" fill-opacity="0.3"/>
<path d="M661.973 1054.2L741.931 849.393L741.355 849.125L661.397 1053.93L661.973 1054.2Z" fill="#01579B" fill-opacity="0.3"/>
<path d="M669.238 1298.04L476.799 1128.38L476.826 1128.19L506.616 902.262L386.116 1114.75L385.584 1114.39L507.665 899.116L477.47 1128.09L668.568 1296.57L661.322 1053.55L661.776 1053.77L887.599 1161.69L887.347 1162.32L661.98 1054.61L669.238 1298.04Z" fill="#01579B" fill-opacity="0.3"/>
<path d="M99.3371 813.504L311.839 664.33L311.5 663.756L98.9982 812.93L99.3371 813.504Z" fill="#01579B" fill-opacity="0.3"/>
<path d="M475.221 748.922C474.102 753.697 468.407 753.751 467.211 749C467.082 748.485 467.077 747.928 467.198 747.412C468.318 742.639 474.011 742.585 475.208 747.334C475.339 747.849 475.342 748.405 475.221 748.922Z" fill="#01579B" fill-opacity="0.3"/>
<path d="M516.883 612.119C515.764 616.893 510.069 616.947 508.873 612.194C508.744 611.679 508.739 611.123 508.86 610.606C509.98 605.834 515.673 605.78 516.87 610.529C517.001 611.044 517.006 611.602 516.883 612.119Z" fill="#01579B" fill-opacity="0.3"/>
<path d="M564.933 755.097C563.813 759.869 558.118 759.923 556.923 755.172C556.794 754.657 556.789 754.101 556.909 753.584C558.029 748.812 563.724 748.758 564.92 753.509C565.049 754.024 565.054 754.58 564.933 755.097Z" fill="#01579B" fill-opacity="0.3"/>
<path d="M705.864 764.821C704.745 769.594 699.05 769.648 697.854 764.897C697.725 764.382 697.72 763.826 697.841 763.309C698.961 758.536 704.655 758.482 705.851 763.233C705.982 763.746 705.985 764.305 705.864 764.821Z" fill="#01579B" fill-opacity="0.3"/>
<path d="M931.345 748.912C930.226 753.685 924.533 753.739 923.335 748.988C923.206 748.473 923.201 747.916 923.322 747.4C924.442 742.625 930.136 742.571 931.332 747.324C931.461 747.837 931.466 748.394 931.345 748.912Z" fill="#01579B" fill-opacity="0.3"/>
<path d="M840.018 853.75C838.898 858.523 833.203 858.577 832.007 853.826C831.879 853.311 831.874 852.754 831.994 852.238C833.114 847.465 838.809 847.411 840.005 852.162C840.135 852.675 840.138 853.233 840.018 853.75Z" fill="#01579B" fill-opacity="0.3"/>
<path d="M745.601 850.002C744.482 854.777 738.787 854.829 737.591 850.078C737.462 849.563 737.457 849.007 737.578 848.49C738.698 843.717 744.392 843.663 745.588 848.414C745.719 848.929 745.722 849.485 745.601 850.002Z" fill="#01579B" fill-opacity="0.3"/>
<path d="M694.413 846.666C693.293 851.439 687.598 851.493 686.402 846.742C686.273 846.227 686.269 845.67 686.389 845.154C687.509 840.381 693.204 840.327 694.399 845.078C694.53 845.593 694.535 846.149 694.413 846.666Z" fill="#01579B" fill-opacity="0.3"/>
<path d="M510.867 901.242C509.748 906.015 504.054 906.069 502.857 901.319C502.727 900.804 502.723 900.248 502.844 899.731C503.964 894.957 509.658 894.903 510.854 899.656C510.983 900.167 510.988 900.725 510.867 901.242Z" fill="#01579B" fill-opacity="0.3"/>
<path d="M448.133 839.012C447.013 843.785 441.32 843.839 440.123 839.09C439.994 838.575 439.989 838.019 440.11 837.502C441.229 832.727 446.924 832.673 448.12 837.426C448.249 837.938 448.254 838.496 448.133 839.012Z" fill="#01579B" fill-opacity="0.3"/>
<path d="M348.913 740.011C347.793 744.784 342.096 744.838 340.902 740.085C340.773 739.57 340.768 739.013 340.891 738.497C342.012 733.726 347.705 733.672 348.901 738.423C349.03 738.936 349.035 739.494 348.913 740.011Z" fill="#01579B" fill-opacity="0.3"/>
<path d="M421.552 684.734C420.432 689.508 414.737 689.563 413.542 684.81C413.413 684.295 413.408 683.738 413.528 683.222C414.648 678.449 420.341 678.395 421.539 683.144C421.669 683.659 421.674 684.217 421.552 684.734Z" fill="#01579B" fill-opacity="0.3"/>
<path d="M315.653 664.829C314.534 669.602 308.839 669.658 307.643 664.905C307.514 664.39 307.509 663.834 307.63 663.317C308.75 658.542 314.444 658.49 315.64 663.241C315.771 663.756 315.776 664.313 315.653 664.829Z" fill="#01579B" fill-opacity="0.3"/>
<path d="M896.743 891.395C895.623 896.17 889.928 896.224 888.732 891.471C888.604 890.956 888.599 890.399 888.719 889.883C889.839 885.11 895.532 885.056 896.729 889.805C896.86 890.322 896.865 890.878 896.743 891.395Z" fill="#01579B" fill-opacity="0.3"/>
<path d="M594.893 843.1C593.773 847.874 588.079 847.927 586.883 843.175C586.754 842.661 586.749 842.104 586.87 841.588C587.989 836.815 593.684 836.761 594.88 841.512C595.01 842.027 595.015 842.583 594.893 843.1Z" fill="#01579B" fill-opacity="0.3"/>
</g>
</g>
<mask id="mask3_11628_12457" style="mask-type:luminance" maskUnits="userSpaceOnUse" x="0" y="0" width="1440" height="900">
<path d="M0 900H1440V6.10352e-05H0V900Z" fill="white"/>
</mask>
<g mask="url(#mask3_11628_12457)">
<path d="M496.008 -53.8187L804.287 156.264L597.451 178.777L597.362 178.574L496.008 -53.8187ZM802.425 155.781L497.414 -52.0742L597.78 178.057L802.425 155.781Z" fill="#01579B" fill-opacity="0.3"/>
<path d="M833.794 -136.131L803.66 155.854L979.579 302.712L979.25 303.271L803.051 156.178L833.002 -134.051L597.109 180.6L650.34 -90.0504L650.896 -89.8955L598.179 178.15L833.794 -136.131Z" fill="#01579B" fill-opacity="0.3"/>
<path d="M832.924 -135.593L833.47 -135.424L1071.87 -61.4396L903.727 74.9884L979.681 302.864L979.15 303.116L903.243 75.3809L803.516 156.296L803.194 155.733L903.027 74.7328L832.924 -135.593ZM1070.51 -61.1569L833.873 -134.592L903.512 74.3385L1070.51 -61.1569Z" fill="#01579B" fill-opacity="0.3"/>
<path d="M1071.19 -62.4908L1071.47 -61.4088L1130.33 170.068L1130.17 170.212L978.892 303.867L979.139 302.882L1071.19 -62.4908ZM1129.67 169.805L1071.19 -60.1305L979.937 302.094L1129.67 169.805Z" fill="#01579B" fill-opacity="0.3"/>
<path d="M1071.41 -61.5067L1313.83 271.254L1130.63 170.686L1257.4 465.731L1256.89 466.043L1129.37 169.24L1311.65 269.31L1070.98 -61.0584L1071.41 -61.5067Z" fill="#01579B" fill-opacity="0.3"/>
<path d="M978.234 14.1128L1014.57 164.836L1257.02 465.23L1312.47 270.155L1352.17 89.368L1130.08 170.273L1129.92 169.621L1352.99 88.358L1352.86 88.9503L1313.02 270.351L1257.26 466.51L1256.93 466.106L1014.06 165.188L977.685 14.3L978.234 14.1128Z" fill="#01579B" fill-opacity="0.3"/>
<path d="M1000.13 -215.51L1000.42 -214.88L1071.4 -61.5432L1352.82 88.6377L1352.86 88.7889L1404.3 300.924L1525.46 341.936L1525.31 342.593L1404.49 301.696L1439.24 444.975L1311.9 269.644L1403.65 300.704L1352.34 89.131L1070.99 -61.0139L1070.94 -61.1129L1000.21 -213.921L903.403 73.7775L1014.23 164.057L1013.91 164.62L902.7 74.0295L1000.13 -215.51ZM1403.84 301.477L1313.58 270.925L1437.96 442.177L1403.84 301.477Z" fill="#01579B" fill-opacity="0.3"/>
<path d="M1257.17 465.053L1286.95 550.813L1439.37 442.616L1329.82 676.05L1286.67 551.803L1193.04 618.267L1257.17 465.053ZM1286.45 551.166L1257.12 466.696L1194.42 616.49L1286.45 551.166ZM1329.9 674.487L1437.83 444.505L1287.17 551.45L1329.9 674.487Z" fill="#01579B" fill-opacity="0.3"/>
<path d="M623.792 -238.078L712.029 -44.7764L770.826 -248.126L833.616 -135.326L1130.8 170.316L803.181 156.342L803.103 156.171L712.145 -43.0931L678.754 72.3911L623.792 -238.078ZM711.775 -43.9033L625.161 -233.654L678.888 69.84L711.775 -43.9033ZM1129.2 169.566L833.181 -134.87L833.16 -134.91L770.989 -246.599L712.398 -43.9645L803.528 155.676L1129.2 169.566Z" fill="#01579B" fill-opacity="0.3"/>
<path d="M1595.07 60.2888L1524.1 344.35L1523.55 344.156L1594.1 61.8138L1476.4 148.672L1476.36 148.602C1475.91 149.059 1474.36 150.222 1469.39 153.938C1464.92 157.278 1458.53 162.045 1450.87 167.762C1435.54 179.194 1415.1 194.427 1394.66 209.656C1353.78 240.116 1312.89 270.56 1312.89 270.56L1312.8 270.627L1312.7 270.609L1066.58 228.216L1438.84 443.323L1438.87 443.471L1463.14 547.185L1286.81 551.649L1286.8 550.967L1462.39 546.52L1438.36 443.802L1063.01 226.914L1312.68 269.92C1317.16 266.582 1469.57 153.089 1475.88 148.264L1475.88 148.256L1476.1 148.093L1595.07 60.2888Z" fill="#01579B" fill-opacity="0.3"/>
<path d="M940.365 -427.557L1000.23 -215.582L1104.92 -446.057L1105.16 -445.443L1206.12 -187.808L1206.01 -187.642L1037.65 73.913L1446.14 24.6011L1446.19 25.2816L1036.39 74.752L1036.8 74.1236L1205.45 -187.894L1104.88 -444.541L1000.11 -213.879L999.899 -214.62L940.296 -425.666L833.602 -134.789L833.457 -134.753L496 -51.4535L496.521 -52.2025L624.509 -236.437L624.949 -236.002L497.482 -52.5157L833.196 -135.386L940.365 -427.557Z" fill="#01579B" fill-opacity="0.3"/>
<path d="M902.895 74.7803L902.902 74.0898L678.847 70.7739L678.84 71.4643L902.895 74.7803Z" fill="#01579B" fill-opacity="0.3"/>
<path d="M765.447 72.2111L833.708 -134.924L833.176 -135.174L764.915 71.9611L765.447 72.2111Z" fill="#01579B" fill-opacity="0.3"/>
<path d="M1184.51 297.066L1312.78 270.606L1312.68 269.934L1184.41 296.393L1184.51 297.066Z" fill="#01579B" fill-opacity="0.3"/>
<path d="M1162.13 244.629L1352.72 89.1182L1352.4 88.5549L1161.8 244.066L1162.13 244.629Z" fill="#01579B" fill-opacity="0.3"/>
<path d="M1205.46 -189.112L1352.77 88.5909L1679.38 245.754L1678.83 246.098L1525.62 342.487L1463.28 546.175L1695.75 411.873L1696 412.487L1462.26 547.523L1525.15 342.007L1525.25 341.945L1678.02 245.836L1352.39 89.1418L1352.34 89.0482L1206.11 -186.598L1216.94 138.367L1216.37 138.393L1205.46 -189.112Z" fill="#01579B" fill-opacity="0.3"/>
<path d="M1010.63 164.4C1011.54 159.589 1016.75 159.366 1017.95 164.083C1018.08 164.591 1018.09 165.147 1017.99 165.664C1017.08 170.472 1011.88 170.696 1010.68 165.981C1010.55 165.473 1010.53 164.918 1010.63 164.4Z" fill="#01579B" fill-opacity="0.3"/>
<path d="M975.733 302.364C976.644 297.553 981.847 297.33 983.046 302.049C983.176 302.556 983.193 303.113 983.095 303.629C982.184 308.436 976.982 308.661 975.781 303.945C975.651 303.437 975.635 302.882 975.733 302.364Z" fill="#01579B" fill-opacity="0.3"/>
<path d="M928.577 160.898C929.49 156.09 934.692 155.866 935.891 160.583C936.021 161.091 936.037 161.647 935.939 162.166C935.028 166.975 929.827 167.198 928.626 162.481C928.496 161.971 928.479 161.417 928.577 160.898Z" fill="#01579B" fill-opacity="0.3"/>
<path d="M799.673 155.396C800.584 150.587 805.788 150.364 806.987 155.081C807.117 155.588 807.133 156.145 807.035 156.661C806.124 161.47 800.921 161.695 799.721 156.976C799.592 156.469 799.575 155.914 799.673 155.396Z" fill="#01579B" fill-opacity="0.3"/>
<path d="M594.161 178.04C595.072 173.231 600.274 173.008 601.475 177.723C601.604 178.231 601.621 178.787 601.523 179.306C600.612 184.115 595.409 184.34 594.209 179.621C594.08 179.113 594.063 178.559 594.161 178.04Z" fill="#01579B" fill-opacity="0.3"/>
<path d="M675.139 70.4961C676.05 65.6874 681.251 65.4623 682.452 70.181C682.582 70.6905 682.599 71.245 682.5 71.7635C681.589 76.5723 676.388 76.7956 675.187 72.0786C675.059 71.5691 675.04 71.0146 675.139 70.4961Z" fill="#01579B" fill-opacity="0.3"/>
<path d="M761.434 71.431C762.345 66.6222 767.547 66.3989 768.748 71.1159C768.877 71.6254 768.894 72.1799 768.796 72.6984C767.883 77.5072 762.683 77.7323 761.482 73.0135C761.352 72.504 761.336 71.9495 761.434 71.431Z" fill="#01579B" fill-opacity="0.3"/>
<path d="M808.25 73.2394C809.161 68.4306 814.365 68.2056 815.564 72.9243C815.694 73.432 815.71 73.9884 815.612 74.5051C814.701 79.3138 809.498 79.5389 808.299 74.8201C808.169 74.3124 808.152 73.7579 808.25 73.2394Z" fill="#01579B" fill-opacity="0.3"/>
<path d="M1033.29 73.5041C1034.21 68.6954 1039.41 68.4721 1040.61 73.1872C1040.74 73.6967 1040.75 74.2513 1040.66 74.7698C1039.75 79.5804 1034.54 79.8036 1033.34 75.0866C1033.21 74.5771 1033.2 74.0226 1033.29 73.5041Z" fill="#01579B" fill-opacity="0.3"/>
<path d="M1126.16 169.529C1127.08 164.72 1132.28 164.497 1133.48 169.216C1133.61 169.725 1133.62 170.28 1133.53 170.798C1132.61 175.605 1127.41 175.829 1126.21 171.112C1126.08 170.602 1126.07 170.048 1126.16 169.529Z" fill="#01579B" fill-opacity="0.3"/>
<path d="M1213.19 137.707C1214.1 132.898 1219.3 132.675 1220.5 137.392C1220.63 137.902 1220.65 138.456 1220.55 138.975C1219.64 143.783 1214.44 144.007 1213.24 139.29C1213.11 138.78 1213.09 138.226 1213.19 137.707Z" fill="#01579B" fill-opacity="0.3"/>
<path d="M1061.11 226.937C1062.02 222.129 1067.22 221.904 1068.42 226.622C1068.55 227.13 1068.57 227.686 1068.47 228.203C1067.56 233.012 1062.36 233.235 1061.16 228.518C1061.03 228.012 1061.01 227.456 1061.11 226.937Z" fill="#01579B" fill-opacity="0.3"/>
<path d="M1158.26 243.677C1159.17 238.868 1164.37 238.643 1165.57 243.362C1165.7 243.87 1165.72 244.426 1165.62 244.943C1164.71 249.751 1159.51 249.976 1158.31 245.258C1158.18 244.75 1158.16 244.194 1158.26 243.677Z" fill="#01579B" fill-opacity="0.3"/>
<path d="M1180.78 296.092C1181.69 291.282 1186.89 291.058 1188.09 295.775C1188.22 296.285 1188.24 296.839 1188.14 297.356C1187.23 302.165 1182.03 302.388 1180.83 297.673C1180.7 297.165 1180.68 296.611 1180.78 296.092Z" fill="#01579B" fill-opacity="0.3"/>
<path d="M1191.19 615.689C1192.1 610.88 1197.3 610.655 1198.5 615.374C1198.63 615.881 1198.65 616.436 1198.55 616.954C1197.64 621.763 1192.44 621.988 1191.24 617.269C1191.11 616.762 1191.09 616.207 1191.19 615.689Z" fill="#01579B" fill-opacity="0.3"/>
<path d="M622.482 34.5836C623.393 29.773 628.597 29.5498 629.796 34.2686C629.926 34.7763 629.942 35.3308 629.844 35.8493C628.933 40.658 623.731 40.8813 622.531 36.1661C622.401 35.6566 622.384 35.1003 622.482 34.5836Z" fill="#01579B" fill-opacity="0.3"/>
<path d="M899.199 73.8156C900.11 69.0068 905.313 68.7818 906.513 73.5005C906.642 74.0082 906.659 74.5627 906.561 75.0812C905.65 79.89 900.448 80.115 899.247 75.3963C899.118 74.8868 899.101 74.3323 899.199 73.8156Z" fill="#01579B" fill-opacity="0.3"/>
</g>
</g>
</svg>
